<svg id="Capa_1" enable-background="new 0 0 512 512" height="512" viewBox="0 0 512 512" width="512" xmlns="http://www.w3.org/2000/svg"><g><circle cx="256" cy="256" fill="#00ddc0" r="256"/><g><path d="m511.678 268.873-98.877-98.877-93.232 59.216-59.216-59.216h-37.394l-82.279 86.004 82.279 124.122 117.573 117.573c95.987-33.569 165.889-122.683 171.146-228.822z" fill="#00ba9f"/></g><g><path d="m260.353 169.996-38.119-38.118-123.76 123.76.363.362 37.523 10 38.714-10-.363-.362z" fill="#fff"/><path d="m222.959 380.122 38.119-38.118-86.004-86.004h-76.237z" fill="#e3eaee"/><path d="m327.16 255.638 85.641-85.642-38.119-38.118-123.76 123.76.363.362 42.755 10 33.482-10z" fill="#fff"/><path d="m251.285 256 124.122 124.122 38.119-38.118-86.004-86.004z" fill="#e3eaee"/></g></g></svg>